<?xml version="1.0" encoding="UTF-8" standalone="no"?><!DOCTYPE svg PUBLIC "-//W3C//DTD SVG 1.1//EN" "http://www.w3.org/Graphics/SVG/1.1/DTD/svg11.dtd"><svg width="100%" height="100%" viewBox="0 0 1182 1182" version="1.1" xmlns="http://www.w3.org/2000/svg" xmlns:xlink="http://www.w3.org/1999/xlink" xml:space="preserve" style="fill-rule:evenodd;clip-rule:evenodd;stroke-linejoin:round;stroke-miterlimit:1.41421;"><path id="Layer1" d="M893.708,337.809l-117.193,146.755l-214.326,0l116.137,-146.755l215.382,0Zm-503.614,0l197.434,0l-117.194,146.755l-196.377,0l116.137,-146.755Zm-134.086,0l43.288,0l-116.138,146.755l-30.618,0c-9.861,0 -18.307,-3.336 -25.339,-10.03c-7.032,-6.693 -10.558,-14.95 -10.558,-24.811l0,-76.017c0,-6.335 1.753,-12.311 5.279,-17.949c-11.255,-6.334 -17.948,-14.781 -20.06,-25.339l-13.725,-74.961c-1.415,-9.861 0.696,-18.836 6.334,-26.923c5.638,-8.087 13.029,-12.838 22.172,-14.253l62.292,-11.614l141.476,123.528l-64.403,11.614Zm791.846,0c9.861,0 18.308,3.526 25.339,10.558c7.032,7.031 10.558,15.478 10.558,25.339l0,76.017c0,9.861 -3.526,18.118 -10.558,24.811c-7.031,6.694 -15.478,10.03 -25.339,10.03l-180.541,0l117.194,-146.755l63.347,0Zm-426.541,-65.459l-211.159,38.008l-141.476,-123.528l212.214,-39.064l140.421,124.584Zm282.953,-51.734l-193.21,34.841l-141.477,-123.528l194.266,-34.841l140.421,123.528Zm119.305,-21.116l-29.562,5.279l-140.421,-123.528l144.644,-26.395c9.861,-1.415 18.835,0.697 26.923,6.335c8.087,5.638 12.838,13.028 14.253,22.171l13.725,74.962c1.415,9.861 -0.697,18.645 -6.335,26.395c-5.637,7.749 -13.366,12.669 -23.227,14.781Zm54.901,350.524l0,521.562c0,9.862 -3.526,18.308 -10.558,25.339c-7.031,7.032 -15.478,10.558 -25.339,10.558l-895.314,0c-9.143,0 -17.252,-3.526 -24.283,-10.558c-7.032,-7.031 -10.558,-15.477 -10.558,-25.339l0,-521.562c0,-9.861 3.336,-18.308 10.03,-25.339c6.694,-7.032 14.95,-10.558 24.811,-10.558l895.314,0c9.861,0 18.308,3.526 25.339,10.558c7.032,7.031 10.558,15.478 10.558,25.339Zm-127.751,422.318c0,-4.92 -1.753,-9.144 -5.279,-12.67c-3.526,-3.526 -7.749,-5.279 -12.669,-5.279l-674.653,0c-4.92,0 -9.144,1.753 -12.67,5.279c-3.526,3.526 -5.279,7.75 -5.279,12.67c0,4.92 1.753,9.143 5.279,12.669c3.526,3.527 7.75,5.279 12.67,5.279l674.653,0c4.92,0 9.143,-1.752 12.669,-5.279c3.526,-3.526 5.279,-7.749 5.279,-12.669Zm0,-150.979c0,-4.92 -1.753,-9.143 -5.279,-12.67c-3.526,-3.526 -7.749,-5.279 -12.669,-5.279l-674.653,0c-4.92,0 -9.144,1.753 -12.67,5.279c-3.526,3.527 -5.279,7.75 -5.279,12.67c0,4.92 1.753,9.143 5.279,12.67c3.526,3.526 7.75,5.278 12.67,5.278l674.653,0c4.92,0 9.143,-1.752 12.669,-5.278c3.526,-3.527 5.279,-7.75 5.279,-12.67Zm0,-172.095c0,-4.92 -1.753,-9.143 -5.279,-12.669c-3.526,-3.527 -7.749,-5.279 -12.669,-5.279l-674.653,0c-4.92,0 -9.144,1.752 -12.67,5.279c-3.526,3.526 -5.279,7.749 -5.279,12.669c0,4.92 1.753,8.975 5.279,12.142c3.526,3.167 7.75,4.751 12.67,4.751l674.653,0c4.92,0 9.143,-1.584 12.669,-4.751c3.526,-3.167 5.279,-7.222 5.279,-12.142Z" style="fill:#fff;fill-rule:nonzero;"/></svg>