<?xml version="1.0" encoding="UTF-8" standalone="no"?><!DOCTYPE svg PUBLIC "-//W3C//DTD SVG 1.1//EN" "http://www.w3.org/Graphics/SVG/1.1/DTD/svg11.dtd"><svg width="100%" height="100%" viewBox="0 0 284 71" version="1.1" xmlns="http://www.w3.org/2000/svg" xmlns:xlink="http://www.w3.org/1999/xlink" xml:space="preserve" style="fill-rule:evenodd;clip-rule:evenodd;stroke-linejoin:round;stroke-miterlimit:1.41421;"><rect id="Artboard1" x="0" y="0" width="283.15" height="70.623" style="fill:none;"/><g><path d="M220.684,50.083c-5.7,0 -10.5,-4.2 -10.5,-10.7c0,-6.5 4.8,-10.5 10.5,-10.5c5.7,0 10.6,4 10.6,10.5c0,6.5 -4.8,10.7 -10.6,10.7m0.1,-4.8c2.8,0 5,-2.6 5,-5.9c0,-3.2 -2.2,-5.9 -5,-5.9c-2.8,0 -5,2.6 -5,5.9c0,3.2 2.3,5.9 5,5.9" style="fill:#fff;fill-rule:nonzero;"/><rect x="12.984" y="28.883" width="5.6" height="20.9" style="fill:#fff;fill-opacity:0.596078;"/><path d="M72.784,31.983c2.4,-2.3 6,-3.5 9.4,-3.5c6.3,0 8.9,3.4 8.9,10.9l0,4.3c0,2.8 2.2,2.4 2.2,2.4l0.2,3.5c0,0 -1,0.7 -2.7,0.7c-3.4,0 -4.5,-2.6 -4.5,-2.6c0,0 -1.9,2.4 -6.4,2.4c-3.3,0 -7.9,-1.4 -7.9,-6.3c0,-6 7.1,-7.5 14.1,-7.3l0,-0.2c0.1,-2.6 -2,-3.7 -4.5,-3.7c-2.9,0 -4.2,0.9 -5.7,2.2l-3.1,-2.8Zm13,8.7l-1.2,0c-3,0 -7.2,0.5 -7.2,2.9c0,2.4 2.4,2.6 3.9,2.6c3.3,0 4.6,-2.5 4.6,-3.8c-0.1,0 -0.1,-1.7 -0.1,-1.7Z" style="fill:#fff;fill-opacity:0.596078;fill-rule:nonzero;"/><path d="M126.084,31.983c2.4,-2.3 6,-3.5 9.4,-3.5c6.3,0 8.9,3.4 8.9,10.9l0,4.3c0,2.8 2.2,2.4 2.2,2.4l0.2,3.5c0,0 -1,0.7 -2.7,0.7c-3.4,0 -4.5,-2.6 -4.5,-2.6c0,0 -1.9,2.4 -6.4,2.4c-3.3,0 -7.9,-1.4 -7.9,-6.3c0,-6 7.1,-7.5 14.1,-7.3l0,-0.2c0.1,-2.6 -2,-3.7 -4.5,-3.7c-2.9,0 -4.2,0.9 -5.7,2.2l-3.1,-2.8Zm12.9,8.7l-1.2,0c-3,0 -7.2,0.5 -7.2,2.9c0,2.4 2.4,2.6 3.9,2.6c3.3,0 4.6,-2.5 4.6,-3.8c-0.1,0 -0.1,-1.7 -0.1,-1.7Z" style="fill:#fff;fill-opacity:0.596078;fill-rule:nonzero;"/><path d="M104.884,33.383l0,9.8c0,1.9 0.6,2.9 2.6,2.9c0.6,0 1.5,-0.2 2,-0.3l0.1,3.7c-0.9,0.3 -2.5,0.7 -3.9,0.7c-5.6,0 -6.5,-3 -6.5,-7.4l0,-9.3l-3.3,0l0,-4.3l3.3,0l0,-6.7l5.9,0l0,6.7l4.9,0l0,4.3l-5.1,-0.1Z" style="fill:#fff;fill-opacity:0.596078;fill-rule:nonzero;"/><rect x="114.684" y="13.583" width="5.7" height="36.3" style="fill:#fff;fill-opacity:0.596078;"/><path d="M179.284,50.283c-2.3,0 -4.2,-1.7 -4.2,-4c0,-2.3 1.9,-4.1 4.2,-4.1c2.3,0 4.2,1.8 4.2,4.1c0,2.3 -1.9,4 -4.2,4" style="fill:#fff;fill-rule:nonzero;"/><path d="M204.584,34.983c-0.8,-1 -3.1,-1.6 -4.5,-1.6c-4,0 -6.1,3.2 -6.1,6.1c0,2.9 2.2,5.9 6.1,5.9c1.4,0 3.7,-0.3 4.6,-1.3l3,3.8c-1.7,1.7 -4.6,2.3 -7.7,2.3c-6.5,0 -11.6,-3.8 -11.6,-10.6c0,-6.8 5.1,-10.6 11.6,-10.6c3,0 6.1,0.7 7.7,2.4l-3.1,3.6Z" style="fill:#fff;fill-rule:nonzero;"/><path d="M261.884,49.783l0,-11.3c0,-2.4 -0.9,-4.4 -3.4,-4.4c-2.4,0 -3.9,2.2 -3.9,4.5l0,11.2l-5.6,0l0,-11.9c0,-2.4 -1.7,-3.9 -3.8,-3.9c-2.2,0 -3.4,2 -3.4,4.5l0,11.2l-5.6,0l0,-20.9l5.3,0l0,3.1l0.1,0c0.9,-1.7 3.1,-3.1 6.2,-3.1c3,0 5.1,1.7 6.3,3.9c1.3,-2.2 3.5,-3.9 6.6,-3.9c5.7,0 6.7,4.2 6.7,8.1l0,12.8c0.2,0.1 -5.5,0.1 -5.5,0.1Z" style="fill:#fff;fill-rule:nonzero;"/><path d="M164.384,49.783l0,-11.3c0,-2.3 -1,-4.4 -3.5,-4.4c-2.4,0 -3.8,2.1 -3.8,4.5l0,11.2l-5.6,0l0,-20.9l5.4,0l0,3.1l0.1,0c1.3,-1.8 3.3,-3.1 6.2,-3.1c5.6,0 6.8,4 6.8,8.2l0,12.8l-5.6,-0.1Z" style="fill:#fff;fill-opacity:0.596078;fill-rule:nonzero;"/><path d="M36.484,49.883l0,-11.4c0,-2.3 -1,-4.4 -3.5,-4.4c-2.4,0 -3.8,2.1 -3.8,4.5l0,11.2l-5.6,0l0,-20.9l5.4,0l0,3.1l0.1,0c1.3,-1.8 3.3,-3.1 6.2,-3.1c5.6,0 6.8,4 6.8,8.2l0,12.8l-5.6,0Z" style="fill:#fff;fill-opacity:0.596078;fill-rule:nonzero;"/><path d="M69.384,24.583l0,4l-1.9,0c-2.5,0 -2.8,1.1 -3.1,1.7c1.3,0.9 3.2,2.4 3.2,5.3c0,4.9 -3.5,7.7 -10.4,7.7c-1.8,0 -2.4,-0.1 -3.9,-0.7c-0.4,0.2 -1.3,0.5 -1.3,1.5c0,1.6 2.4,1.4 3.4,1.4l6.8,0c2.3,0 4.2,0.6 5.4,1.7c1.3,1.2 1.9,2.4 1.9,5.3c0,3.7 -2.9,6.9 -12.3,6.9c-7.2,0 -10.6,-2.3 -10.6,-6.1c0,-1.4 0.6,-3.5 2.8,-4.6c-1.3,-0.9 -2.1,-2.4 -2.1,-3.9c0,-1.7 0.9,-3.5 2.8,-4.3c-1.2,-0.9 -2.3,-2.8 -2.3,-5.3c0,-1.9 0.8,-3.5 2.3,-4.9c1.5,-1.3 3.9,-2.2 7.1,-2.2c1.4,0 2.6,0.2 4.1,0.5c0.6,-2.4 2.7,-4.1 5.6,-4.1l2.5,0l0,0.1Zm-17.4,25.3c0,0 -1.3,0.8 -1.3,1.8c0,0.9 0.4,2 1.4,2.7c1.2,0.8 1.9,0.9 4.5,0.9c0.1,0 1.5,0 1.6,0c5.3,0 5.7,-2.1 5.7,-3.1c0,-0.7 -0.5,-2 -3.4,-2l-5.4,0c-1,-0.1 -1.7,-0.1 -3.1,-0.3m8.9,-11.9c0.9,-0.9 1,-1.8 1,-2.6c0,-1.3 -0.9,-3.1 -4.6,-3.1c-1.2,0 -2.4,0.3 -3.1,0.9c-0.6,0.6 -1.1,1.3 -1.1,2.3c0,0.9 0.2,1.7 1,2.4c0.3,0.3 1.3,1 3.3,1c2.1,0.2 3.2,-0.6 3.5,-0.9" style="fill:#fff;fill-opacity:0.596078;fill-rule:nonzero;"/><path d="M15.784,25.383c-2.3,0 -4.2,-1.7 -4.2,-4c0,-2.3 1.9,-4.1 4.2,-4.1c2.3,0 4.2,1.8 4.2,4.1c0,2.2 -1.9,4 -4.2,4" style="fill:#fff;fill-rule:nonzero;"/></g></svg>