<svg width="158" height="78" viewBox="0 0 158 78" fill="none" xmlns="http://www.w3.org/2000/svg">
<path d="M83.3182 1.36363V77H74.1591V1.36363H83.3182ZM160.183 77V1.36363H185.739C191.648 1.36363 196.499 2.3731 200.29 4.39204C204.082 6.38636 206.889 9.13163 208.711 12.6278C210.533 16.1241 211.444 20.1004 211.444 24.5568C211.444 29.0133 210.533 32.965 208.711 36.4119C206.889 39.8589 204.094 42.5672 200.327 44.5369C196.56 46.482 191.747 47.4545 185.887 47.4545H165.205V39.1818H185.592C189.629 39.1818 192.879 38.5909 195.342 37.4091C197.828 36.2273 199.626 34.553 200.734 32.3864C201.866 30.1951 202.433 27.5852 202.433 24.5568C202.433 21.5284 201.866 18.8816 200.734 16.6165C199.601 14.3513 197.791 12.6032 195.305 11.3722C192.818 10.1165 189.531 9.48863 185.444 9.48863H169.342V77H160.183ZM195.785 43.0227L214.398 77H203.762L185.444 43.0227H195.785ZM287.57 25H278.411C277.869 22.3655 276.921 20.0511 275.567 18.0568C274.237 16.0625 272.612 14.3883 270.692 13.0341C268.796 11.6553 266.691 10.6212 264.376 9.93182C262.062 9.24242 259.649 8.89773 257.138 8.89773C252.558 8.89773 248.41 10.0549 244.692 12.3693C240.999 14.6837 238.056 18.0938 235.865 22.5994C233.698 27.1051 232.615 32.6326 232.615 39.1818C232.615 45.7311 233.698 51.2585 235.865 55.7642C238.056 60.2699 240.999 63.6799 244.692 65.9943C248.41 68.3087 252.558 69.4659 257.138 69.4659C259.649 69.4659 262.062 69.1212 264.376 68.4318C266.691 67.7424 268.796 66.7206 270.692 65.3665C272.612 63.9877 274.237 62.3011 275.567 60.3068C276.921 58.2879 277.869 55.9735 278.411 53.3636H287.57C286.88 57.2292 285.625 60.6884 283.803 63.7415C281.981 66.7945 279.715 69.392 277.007 71.5341C274.299 73.6515 271.258 75.2642 267.885 76.3722C264.536 77.4801 260.954 78.0341 257.138 78.0341C250.687 78.0341 244.95 76.4583 239.928 73.3068C234.905 70.1553 230.953 65.6742 228.072 59.8636C225.192 54.053 223.751 47.1591 223.751 39.1818C223.751 31.2045 225.192 24.3106 228.072 18.5C230.953 12.6894 234.905 8.20833 239.928 5.05682C244.95 1.9053 250.687 0.329543 257.138 0.329543C260.954 0.329543 264.536 0.88352 267.885 1.99148C271.258 3.09943 274.299 4.72443 277.007 6.86648C279.715 8.9839 281.981 11.5691 283.803 14.6222C285.625 17.6506 286.88 21.1098 287.57 25ZM343.734 20.2727C343.29 16.5303 341.493 13.625 338.342 11.5568C335.19 9.48863 331.325 8.45454 326.745 8.45454C323.397 8.45454 320.467 8.99621 317.955 10.0795C315.469 11.1629 313.523 12.6525 312.12 14.5483C310.741 16.4441 310.052 18.5985 310.052 21.0114C310.052 23.0303 310.532 24.7661 311.492 26.2188C312.477 27.6468 313.733 28.8409 315.259 29.8011C316.786 30.7367 318.386 31.5123 320.06 32.1278C321.735 32.7187 323.273 33.1989 324.677 33.5682L332.359 35.6364C334.328 36.1534 336.52 36.8674 338.933 37.7784C341.37 38.6894 343.697 39.9328 345.913 41.5085C348.153 43.0597 350 45.054 351.452 47.4915C352.905 49.929 353.631 52.9205 353.631 56.4659C353.631 60.553 352.56 64.2462 350.418 67.5455C348.301 70.8447 345.199 73.4669 341.112 75.4119C337.049 77.357 332.112 78.3295 326.302 78.3295C320.885 78.3295 316.195 77.4555 312.231 75.7074C308.291 73.9593 305.189 71.5218 302.924 68.3949C300.683 65.268 299.415 61.6364 299.12 57.5H308.575C308.821 60.3561 309.781 62.7197 311.455 64.5909C313.154 66.4375 315.296 67.8163 317.881 68.7273C320.491 69.6136 323.298 70.0568 326.302 70.0568C329.798 70.0568 332.937 69.4905 335.719 68.358C338.502 67.2008 340.705 65.6004 342.33 63.5568C343.955 61.4886 344.768 59.0758 344.768 56.3182C344.768 53.8068 344.066 51.7633 342.663 50.1875C341.259 48.6117 339.413 47.3314 337.123 46.3466C334.833 45.3617 332.359 44.5 329.7 43.7614L320.393 41.1023C314.484 39.4034 309.806 36.9782 306.359 33.8267C302.912 30.6752 301.188 26.5511 301.188 21.4545C301.188 17.2197 302.333 13.5265 304.623 10.375C306.937 7.19886 310.04 4.73674 313.93 2.98863C317.844 1.21591 322.215 0.329543 327.04 0.329543C331.915 0.329543 336.249 1.2036 340.04 2.9517C343.832 4.67518 346.836 7.03882 349.052 10.0426C351.292 13.0464 352.474 16.4564 352.597 20.2727H343.734ZM377.849 1.36363V77H368.69V1.36363H377.849ZM396.214 77V1.36363H405.373V38.8864H406.259L440.237 1.36363H452.202L420.441 35.4886L452.202 77H441.123L414.827 41.8409L405.373 52.4773V77H396.214Z" fill="black"/>
<circle cx="44" cy="39" r="34" stroke="black" stroke-width="10"/>
<mask id="mask0_0_1" style="mask-type:alpha" maskUnits="userSpaceOnUse" x="87" y="-4" width="71" height="86">
<rect x="87" y="-4" width="71" height="86" fill="#D9D9D9"/>
</mask>
<g mask="url(#mask0_0_1)">
<circle cx="114" cy="39" r="34" stroke="black" stroke-width="10"/>
</g>
</svg>
