<?xml version="1.0" encoding="UTF-8" standalone="no"?><!DOCTYPE svg PUBLIC "-//W3C//DTD SVG 1.1//EN" "http://www.w3.org/Graphics/SVG/1.1/DTD/svg11.dtd"><svg width="100%" height="100%" viewBox="0 0 1000 400" version="1.1" xmlns="http://www.w3.org/2000/svg" xmlns:xlink="http://www.w3.org/1999/xlink" xml:space="preserve" style="fill-rule:evenodd;clip-rule:evenodd;stroke-linejoin:round;stroke-miterlimit:1.41421;"><path d="M0,0l0,27.367l194.648,0l0,-27.367l-194.648,0Zm222.227,0l0,27.367l277.382,0c0,0 -28.333,-27.367 -65.859,-27.367l-211.523,0Zm331.796,0l0,27.367l167.813,0l-9.961,-27.367l-157.852,0Zm288.125,0l-9.961,27.367l166.29,0l0,-27.367l-156.329,0Zm-842.148,53.222l0,27.367l194.648,0l0,-27.367l-194.648,0Zm222.227,0.039l0,27.328l309.57,0c0,0 -3.616,-21.063 -9.922,-27.328l-299.648,0Zm331.796,0l0,27.328l186.211,0l-9.218,-27.328l-176.993,0Zm268.204,0l-9.219,27.328l185.469,0l0,-27.328l-176.25,0Zm-766.29,53.183l0,27.406l84.297,0l0,-27.406l-84.297,0Zm222.227,0l0,27.406l84.297,0l0,-27.406l-84.297,0Zm166.289,0l0,27.406l84.297,0c0,0 5.352,-14.473 5.352,-27.406l-89.649,0Zm165.508,0l0,27.406l149.453,0l-9.961,-27.406l-139.492,0Zm193.906,0l-10,27.406l150.196,0l0,-27.406l-140.196,0Zm-747.93,53.261l0,27.367l84.297,0l0,-27.367l-84.297,0Zm222.227,0l0,27.367l215.313,0c0,0 18.011,-14.042 23.75,-27.367l-239.063,0Zm331.797,0l0,27.367l84.297,0l0,-15.234l5.351,15.234l154.414,0l5.743,-15.234l0,15.234l84.297,0l0,-27.367l-158.243,0l-8.398,23.181l-8.438,-23.181l-159.023,0Zm-554.024,53.223l0,27.367l84.297,0l0,-27.367l-84.297,0Zm222.227,0l0,27.367l239.063,0c-5.74,-13.282 -23.75,-27.367 -23.75,-27.367l-215.313,0Zm331.797,0l0,27.367l84.297,0l0,-27.367l-84.297,0Zm99.609,0l10.196,27.367l115.781,0l9.687,-27.367l-135.664,0Zm150.196,0l0,27.367l84.296,0l0,-27.367l-84.296,0Zm-803.829,53.222l0,27.367l84.297,0l0,-27.367l-84.297,0Zm222.227,0l0,27.367l84.297,0l0,-27.367l-84.297,0Zm166.289,0l0,27.367l89.649,0c0,-12.916 -5.352,-27.367 -5.352,-27.367l-84.297,0Zm165.508,0l0,27.367l84.297,0l0,-27.367l-84.297,0Zm118.75,0l9.883,27.367l77.617,0l9.961,-27.367l-97.461,0Zm131.055,0l0,27.367l84.296,0l0,-27.367l-84.296,0Zm-858.243,53.222l0,27.406l194.649,0l0,-27.406l-194.649,0Zm220.704,0l0,27.406l299.648,0c6.306,-6.276 9.922,-27.406 9.922,-27.406l-309.57,0Zm333.32,0l0,27.406l138.711,0l0,-27.406l-138.711,0Zm192.344,0l10.156,27.406l39.492,0l9.531,-27.406l-59.179,0Zm111.875,0l0,27.406l140.234,0l0,-27.406l-140.234,0Zm-858.243,53.261l0,27.367l194.649,0l0,-27.367l-194.649,0Zm220.704,0l0,27.328l211.523,0c37.526,0 65.859,-27.328 65.859,-27.328l-277.382,0Zm333.32,0l0,27.367l138.711,0l0,-27.367l-138.711,0Zm211.601,0l9.766,27.289l1.68,0.039l9.922,-27.328l-21.368,0Zm92.618,0l0,27.367l140.234,0l0,-27.367l-140.234,0Z" style="fill:#fff;fill-rule:nonzero;"/></svg>