<?xml version="1.0" encoding="UTF-8" standalone="no"?><!DOCTYPE svg PUBLIC "-//W3C//DTD SVG 1.1//EN" "http://www.w3.org/Graphics/SVG/1.1/DTD/svg11.dtd"><svg width="100%" height="100%" viewBox="0 0 800 800" version="1.1" xmlns="http://www.w3.org/2000/svg" xmlns:xlink="http://www.w3.org/1999/xlink" xml:space="preserve" style="fill-rule:evenodd;clip-rule:evenodd;stroke-linejoin:round;stroke-miterlimit:1.41421;"><g id="g3216"><g id="g5003"><path id="path3854" d="M300.849,319.427c-0.715,54.325 45.609,99.648 99.807,99.648c54.198,0 98.574,-45.318 98.574,-99.648c0,-54.331 -44.363,-98.34 -98.574,-98.34c-71.765,0 -99.286,58.68 -99.807,98.34l0,0Zm99.807,-87.678c48.311,0 86.217,39.248 86.217,87.678c0,48.429 -37.906,86.867 -86.217,86.867c-48.311,0 -87.451,-38.438 -87.451,-86.867c0,-48.43 39.14,-87.678 87.451,-87.678l0,0Z" style="fill:#fff;fill-opacity:0.596078;fill-rule:nonzero;"/><path id="path3857" d="M276.544,319.423c0,70.266 58.751,122.742 124.107,122.742c65.355,0 122.455,-54.011 122.455,-122.742c0,-68.732 -57.591,-123.336 -122.455,-123.336c-64.864,0 -124.107,50.081 -124.107,123.336Zm124.107,-112.201c56.023,0 110.678,48.154 110.678,112.201c0,64.474 -49.561,110.965 -110.678,110.965c-63.897,0 -111.272,-49.057 -111.272,-110.965c0,-64.261 50.155,-112.201 111.272,-112.201Z" style="fill:#fff;fill-opacity:0.596078;fill-rule:nonzero;"/><path id="path3859" d="M252.507,319.484c0,84.766 69.341,147.223 148.183,147.223c78.842,0 147.301,-64.309 147.301,-147.223c0,-82.914 -68.568,-147.888 -147.301,-147.888c-78.733,0 -148.183,60.284 -148.183,147.888l0,0Zm148.183,-135.67c71.331,0 134.847,58.407 134.847,135.67c0,77.779 -62.813,135.436 -136.542,135.436c-73.269,0 -134.958,-60.753 -134.958,-135.436c0,-77.521 62.925,-135.67 136.653,-135.67l0,0Z" style="fill:#fff;fill-opacity:0.596078;fill-rule:nonzero;"/></g><g id="g5008"><path id="path3819" d="M392.975,248.008l15.613,0l0,142.441l-15.613,0l0,-142.441Z" style="fill:#fff;fill-rule:nonzero;"/><path id="path3821" d="M360.384,259.199c6.268,-4.982 15.613,-7.42 15.613,-7.42l0,134.5c-8.856,-2.112 -15.506,-7.237 -15.506,-7.237l-0.107,-119.843Z" style="fill:#fff;fill-rule:nonzero;"/><path id="path3834" d="M441.369,258.897c-6.269,-4.982 -15.613,-7.421 -15.613,-7.421l0,134.5c8.855,-2.112 15.506,-7.237 15.506,-7.237l0.107,-119.842Z" style="fill:#fff;fill-rule:nonzero;"/><path id="path3836" d="M343.187,275.493l0,86.657c0,0 -14.367,-14.065 -14.367,-43.102c0,-29.036 14.367,-43.555 14.367,-43.555Z" style="fill:#fff;fill-rule:nonzero;"/><path id="path3838" d="M457.386,274.888l0,86.657c0,0 14.368,-14.065 14.368,-43.101c0,-29.037 -14.368,-43.556 -14.368,-43.556Z" style="fill:#fff;fill-rule:nonzero;"/></g><g id="g3386"><path id="path4983" d="M473.803,173.338l20.638,-39.563l-19.183,-9.238l-16.413,41.817l14.958,6.984Z" style="fill:#fff;fill-rule:nonzero;"/><path id="path3039" d="M441.647,161.155l11.926,-42.999l-20.688,-5.031l-7.324,44.322l16.086,3.708Z" style="fill:#fff;fill-rule:nonzero;"/><path id="path3041" d="M408.344,155.985l2.876,-44.529l-21.28,-0.692l1.899,44.883l16.505,0.338Z" style="fill:#fff;fill-rule:nonzero;"/><path id="path3043" d="M373.872,157.869l-6.518,-44.144l-20.953,3.783l11.262,43.488l16.209,-3.127Z" style="fill:#fff;fill-rule:nonzero;"/><path id="path3045" d="M340.64,166.902l-15.601,-41.806l-19.699,8.078l20.103,40.174l15.197,-6.446Z" style="fill:#fff;fill-rule:nonzero;"/><path id="path3047" d="M310.074,182.653l-23.983,-37.629l-17.579,12.012l28.044,35.094l13.518,-9.477Z" style="fill:#fff;fill-rule:nonzero;"/><path id="path3049" d="M283.953,203.949l-31.175,-31.926l-14.75,15.354l34.632,28.614l11.293,-12.042Z" style="fill:#fff;fill-rule:nonzero;"/><path id="path3051" d="M262.292,230.832l-37.172,-24.686l-11.205,18.105l39.858,20.721l8.519,-14.14Z" style="fill:#fff;fill-rule:nonzero;"/><path id="path3053" d="M247.012,260.954l-41.444,-16.539l-7.254,20.017l43.26,12.109l5.438,-15.587Z" style="fill:#fff;fill-rule:nonzero;"/><path id="path3055" d="M238.137,294.175l-43.983,-7.524l-2.917,21.09l44.835,2.813l2.065,-16.379Z" style="fill:#fff;fill-rule:nonzero;"/><path id="path3057" d="M236.356,327.83l-44.593,1.634l1.46,21.24l44.462,-6.419l-1.329,-16.455Z" style="fill:#fff;fill-rule:nonzero;"/><path id="path3059" d="M241.709,361.936l-43.26,10.941l5.878,20.463l42.13,-15.593l-4.748,-15.811Z" style="fill:#fff;fill-rule:nonzero;"/><path id="path3061" d="M254.05,394.086l-40.018,19.742l10.026,18.782l37.94,-24.055l-7.948,-14.469Z" style="fill:#fff;fill-rule:nonzero;"/><path id="path3063" d="M272.807,422.907l-35.017,27.659l13.725,16.276l32.084,-31.443l-10.792,-12.492Z" style="fill:#fff;fill-rule:nonzero;"/><path id="path3065" d="M296.63,446.745l-28.616,34.238l16.764,13.124l24.972,-37.343l-13.12,-10.019Z" style="fill:#fff;fill-rule:nonzero;"/><path id="path3067" d="M325.562,465.582l-20.807,39.474l19.142,9.32l16.593,-41.747l-14.928,-7.047Z" style="fill:#fff;fill-rule:nonzero;"/><path id="path3069" d="M357.965,477.982l-12.029,42.971l20.676,5.08l7.431,-44.304l-16.078,-3.747Z" style="fill:#fff;fill-rule:nonzero;"/><path id="path3071" d="M391.943,483.267l-2.795,44.535l21.281,0.653l-1.98,-44.88l-16.506,-0.308Z" style="fill:#fff;fill-rule:nonzero;"/><path id="path3073" d="M425.596,481.453l6.376,44.164l20.964,-3.715l-11.12,-43.524l-16.22,3.075Z" style="fill:#fff;fill-rule:nonzero;"/><path id="path3075" d="M458.938,472.496l15.488,41.848l19.72,-8.025l-19.993,-40.228l-15.215,6.405Z" style="fill:#fff;fill-rule:nonzero;"/><path id="path3077" d="M489.59,456.799l23.893,37.687l17.607,-11.97l-27.96,-35.161l-13.54,9.444Z" style="fill:#fff;fill-rule:nonzero;"/><path id="path3079" d="M516.248,435.079l31.232,31.87l14.722,-15.381l-34.683,-28.551l-11.271,12.062Z" style="fill:#fff;fill-rule:nonzero;"/><path id="path3081" d="M537.412,408.851l37.092,24.806l11.263,-18.068l-39.791,-20.851l-8.564,14.113Z" style="fill:#fff;fill-rule:nonzero;"/><path id="path3083" d="M553.059,378.077l41.466,16.483l7.228,-20.027l-43.277,-12.05l-5.417,15.594Z" style="fill:#fff;fill-rule:nonzero;"/><path id="path3089" d="M561.926,344.601l44.005,7.399l2.857,-21.099l-44.843,-2.685l-2.019,16.385Z" style="fill:#fff;fill-rule:nonzero;"/><path id="path3091" d="M563.566,310.116l44.578,-1.985l-1.627,-21.229l-44.41,6.77l1.459,16.444Z" style="fill:#fff;fill-rule:nonzero;"/><path id="path3093" d="M557.967,276.137l43.179,-11.259l-6.029,-20.42l-42.014,15.903l4.864,15.776Z" style="fill:#fff;fill-rule:nonzero;"/><path id="path3095" d="M545.413,244.124l39.878,-20.023l-10.158,-18.712l-37.77,24.322l8.05,14.413Z" style="fill:#fff;fill-rule:nonzero;"/><path id="path3097" d="M526.89,215.968l34.938,-27.758l-13.772,-16.237l-31.994,31.534l10.828,12.461Z" style="fill:#fff;fill-rule:nonzero;"/><path id="path3099" d="M502.355,191.681l28.346,-34.463l-16.868,-12.992l-24.676,37.539l13.198,9.916Z" style="fill:#fff;fill-rule:nonzero;"/></g></g><g id="g3271"><path id="path3261" d="M252.296,587.651l0,98.259l19.321,0l0,-29.151l5.897,0c5.021,0 9.879,-0.846 14.573,-2.539c4.695,-1.693 8.898,-4.094 12.609,-7.204c3.712,-3.11 6.606,-6.795 8.681,-11.053c2.076,-4.258 3.114,-8.844 3.114,-13.758c0,-4.911 -1.038,-9.496 -3.114,-13.754c-2.075,-4.258 -4.969,-7.943 -8.681,-11.055c-3.711,-3.112 -7.914,-5.514 -12.609,-7.206c-4.694,-1.693 -9.552,-2.539 -14.573,-2.539l-25.218,0Zm25.218,19.326c5.131,0 9.634,1.392 13.509,4.175c3.875,2.784 5.812,6.468 5.812,11.053c0,4.588 -1.937,8.273 -5.812,11.057c-3.875,2.784 -8.378,4.176 -13.509,4.176l-5.897,0l0,-30.461l5.897,0Z" style="fill:#fff;fill-opacity:0.6;fill-rule:nonzero;"/><path id="path3263" d="M373.636,627.612l-3.603,-19.491c-2.622,0 -5.27,0.547 -7.944,1.64c-2.674,1.092 -5.158,2.403 -7.452,3.93c-2.294,1.528 -4.095,2.837 -5.405,3.928c-1.309,1.092 -2.237,1.855 -2.783,2.292c-0.11,-0.217 -0.493,-0.789 -1.147,-1.717c-0.655,-0.928 -1.528,-2.047 -2.619,-3.358c-1.091,-1.311 -2.128,-2.512 -3.111,-3.604c-0.983,-1.091 -1.858,-1.91 -2.624,-2.456l-15.718,9.336c4.258,3.275 7.397,6.905 9.416,10.89c2.019,3.985 3.028,8.652 3.029,14.003l0,42.905l18.671,0l0,-44.379c0.436,-0.547 1.255,-1.474 2.456,-2.784c1.201,-1.309 2.784,-2.838 4.748,-4.585c1.964,-1.748 4.202,-3.276 6.714,-4.586c2.513,-1.309 4.97,-1.964 7.372,-1.964l0,0Z" style="fill:#fff;fill-opacity:0.6;fill-rule:nonzero;"/><path id="path3265" d="M401.768,658.563c0.979,0 1.907,0 2.783,0c19.651,0 41.478,-10.623 40.313,-27.023c-0.67,-9.431 -3.522,-12.582 -8.463,-16.827c-5.241,-4.095 -13.915,-6.357 -19.937,-6.402c-4.915,-0.036 -9.951,1.624 -14.154,3.753c-4.203,2.129 -7.908,4.58 -10.965,8.401c-3.057,3.822 -5.629,7.937 -7.267,12.795c-1.637,4.857 -2.456,9.852 -2.456,14.983c0,5.131 0.819,10.126 2.456,14.985c1.638,4.86 3.958,9.173 6.96,12.939c3.002,3.767 6.604,6.742 10.807,8.926c4.203,2.184 8.817,3.276 13.841,3.276c3.928,0 7.585,-0.655 10.97,-1.966c3.385,-1.311 6.224,-2.84 8.516,-4.586c2.292,-1.746 4.039,-3.274 5.24,-4.585c1.201,-1.311 2.02,-2.24 2.457,-2.786l-10.48,-10.481c-0.873,1.093 -2.702,2.431 -5.485,4.014c-2.784,1.582 -6.523,2.374 -11.218,2.374c-2.402,0 -4.449,-0.464 -6.142,-1.392c-1.693,-0.928 -3.084,-2.074 -4.175,-3.439c-1.092,-1.364 -1.855,-2.565 -2.292,-3.603c-0.436,-1.038 -0.873,-2.157 -1.309,-3.356l0,0Zm13.694,-34.048c3.275,0 5.744,0.029 8.907,1.959c1.964,1.256 3.836,3.313 3.706,5.591c-0.307,5.353 -8.785,8.85 -15.037,10.045c-4.339,0.829 -5.942,1.156 -12.929,1.156c0.11,-0.763 0.206,-1.167 0.587,-2.859c0.382,-1.693 1.316,-4.081 2.354,-6.265c1.038,-2.184 2.566,-4.122 4.585,-5.815c2.019,-1.692 4.878,-3.812 7.827,-3.812l0,0Z" style="fill:#fff;fill-opacity:0.6;fill-rule:nonzero;"/><path id="path3267" d="M455.287,610.58l0,18.342l28.657,0l-30.296,56.988l59.607,0l0,-18.341l-30.296,0l30.296,-56.989l-57.968,0Z" style="fill:#fff;fill-opacity:0.6;fill-rule:nonzero;"/><path id="path3269" d="M538.503,575.696c-3.168,0 -5.844,1.092 -8.026,3.276c-2.182,2.184 -3.273,4.859 -3.273,8.024c0,3.165 1.091,5.84 3.273,8.024c2.182,2.184 4.858,3.276 8.026,3.276c3.166,0 5.84,-1.092 8.024,-3.276c2.184,-2.184 3.276,-4.859 3.276,-8.024c0,-3.165 -1.092,-5.84 -3.276,-8.024c-2.184,-2.184 -4.858,-3.276 -8.024,-3.276Zm9.496,34.884l-18.996,0l0,75.33l18.996,0l0,-75.33Z" style="fill:#fff;fill-opacity:0.6;fill-rule:nonzero;"/></g></svg>